<svg xmlns="http://www.w3.org/2000/svg" width="1200" height="400" viewBox="0 0 1200 400">
  <defs>
    <linearGradient id="g" x1="0" y1="0" x2="1" y2="1">
      <stop offset="0%" stop-color="#0a3d91"/>
      <stop offset="100%" stop-color="#1565c0"/>
    </linearGradient>
    <pattern id="dots" width="30" height="30" patternUnits="userSpaceOnUse">
      <circle cx="2" cy="2" r="1.5" fill="rgba(255,255,255,0.15)"/>
    </pattern>
  </defs>
  <rect width="1200" height="400" fill="url(#g)"/>
  <rect width="1200" height="400" fill="url(#dots)"/>
  <polyline points="0,320 100,280 200,300 300,240 400,260 500,200 600,220 700,160 800,180 900,140 1000,120 1100,80 1200,60"
    fill="none" stroke="rgba(255,255,255,0.35)" stroke-width="3"/>
  <polyline points="0,360 100,340 200,330 300,310 400,290 500,260 600,250 700,220 800,210 900,190 1000,170 1100,150 1200,130"
    fill="none" stroke="rgba(255,255,255,0.2)" stroke-width="2"/>
  <g fill="rgba(255,255,255,0.25)">
    <circle cx="100" cy="280" r="5"/><circle cx="300" cy="240" r="5"/>
    <circle cx="500" cy="200" r="5"/><circle cx="700" cy="160" r="5"/>
    <circle cx="900" cy="140" r="5"/><circle cx="1100" cy="80" r="5"/>
  </g>
</svg>
