<svg xmlns="http://www.w3.org/2000/svg" width="500" height="350" viewBox="0 0 500 350">
  <rect width="500" height="350" fill="#f5f8fc"/>
  <g stroke="#0a3d91" stroke-width="1.5" fill="none" opacity="0.6">
    <line x1="100" y1="80" x2="220" y2="120"/><line x1="100" y1="80" x2="220" y2="180"/>
    <line x1="100" y1="80" x2="220" y2="240"/><line x1="100" y1="160" x2="220" y2="120"/>
    <line x1="100" y1="160" x2="220" y2="180"/><line x1="100" y1="160" x2="220" y2="240"/>
    <line x1="100" y1="240" x2="220" y2="120"/><line x1="100" y1="240" x2="220" y2="180"/>
    <line x1="100" y1="240" x2="220" y2="240"/>
    <line x1="220" y1="120" x2="340" y2="160"/><line x1="220" y1="120" x2="340" y2="220"/>
    <line x1="220" y1="180" x2="340" y2="160"/><line x1="220" y1="180" x2="340" y2="220"/>
    <line x1="220" y1="240" x2="340" y2="160"/><line x1="220" y1="240" x2="340" y2="220"/>
    <line x1="340" y1="160" x2="430" y2="180"/><line x1="340" y1="220" x2="430" y2="180"/>
  </g>
  <g fill="#0a3d91">
    <circle cx="100" cy="80" r="14"/><circle cx="100" cy="160" r="14"/><circle cx="100" cy="240" r="14"/>
  </g>
  <g fill="#1565c0">
    <circle cx="220" cy="120" r="14"/><circle cx="220" cy="180" r="14"/><circle cx="220" cy="240" r="14"/>
  </g>
  <g fill="#0277bd">
    <circle cx="340" cy="160" r="14"/><circle cx="340" cy="220" r="14"/>
  </g>
  <circle cx="430" cy="180" r="18" fill="#e53935"/>
  <text x="250" y="335" text-anchor="middle" font-family="Tahoma" font-size="14" fill="#0a3d91" font-weight="bold">Réseau de neurones — IA</text>
</svg>
